<svg xmlns="http://www.w3.org/2000/svg" viewBox="0 0 512 512"><title>171108_SCH_Icons_social_media</title><g id="instagram"><circle id="circle" cx="256" cy="256" r="256" style="fill:#d93175"/><path d="M256,163.36c30.17,0,33.75.12,45.66.66,11,.5,17,2.34,21,3.89a37.42,37.42,0,0,1,21.45,21.45c1.55,4,3.39,10,3.89,21,.54,11.92.66,15.49.66,45.66s-.12,33.75-.66,45.66c-.5,11-2.34,17-3.89,21a37.42,37.42,0,0,1-21.45,21.45c-4,1.55-10,3.39-21,3.89-11.91.54-15.49.66-45.66.66s-33.75-.12-45.66-.66c-11-.5-17-2.34-21-3.89a37.42,37.42,0,0,1-21.45-21.45c-1.55-4-3.39-10-3.89-21-.54-11.92-.66-15.49-.66-45.66s.12-33.75.66-45.66c.5-11,2.34-17,3.89-21a37.42,37.42,0,0,1,21.45-21.45c4-1.55,10-3.39,21-3.89,11.92-.54,15.49-.66,45.66-.66M256,143c-30.69,0-34.54.13-46.59.68s-20.24,2.46-27.43,5.25a57.78,57.78,0,0,0-33,33c-2.79,7.19-4.7,15.4-5.25,27.43S143,225.31,143,256s.13,34.54.68,46.59,2.46,20.24,5.25,27.43a57.78,57.78,0,0,0,33,33c7.19,2.79,15.4,4.7,27.43,5.25s15.9.68,46.59.68,34.54-.13,46.59-.68,20.24-2.46,27.43-5.25a57.78,57.78,0,0,0,33-33c2.79-7.19,4.7-15.4,5.25-27.43s.68-15.9.68-46.59-.13-34.54-.68-46.59-2.46-20.24-5.25-27.43a57.78,57.78,0,0,0-33-33c-7.19-2.79-15.4-4.7-27.43-5.25S286.69,143,256,143Z" style="fill:#fff"/><path d="M256,198a58,58,0,1,0,58,58A58,58,0,0,0,256,198Zm0,95.69A37.67,37.67,0,1,1,293.67,256,37.67,37.67,0,0,1,256,293.67Z" style="fill:#fff"/><circle cx="316.32" cy="195.68" r="13.56" style="fill:#fff"/></g></svg>