<svg xmlns="http://www.w3.org/2000/svg" viewBox="0 0 512 512"><title>171108_SCH_Icons_social_media</title><g id="twitter"><circle id="circle" cx="256" cy="256" r="256" style="fill:#1da1f2"/><path d="M222.23,355.92c87.58,0,135.46-72.52,135.46-135.46l-.12-6.14a97.56,97.56,0,0,0,23.7-24.64,94.82,94.82,0,0,1-27.34,7.49,47.83,47.83,0,0,0,21-26.36,95.81,95.81,0,0,1-30.2,11.58,47.63,47.63,0,0,0-82.38,32.53,47.14,47.14,0,0,0,1.27,10.84,135,135,0,0,1-98.14-49.72A47.07,47.07,0,0,0,159,200a47.58,47.58,0,0,0,21.16,39.66,46.8,46.8,0,0,1-21.53-6v.61a47.57,47.57,0,0,0,38.18,46.69,49,49,0,0,1-12.56,1.68l-8.92-.86a47.61,47.61,0,0,0,44.44,33.07,95.67,95.67,0,0,1-59.14,20.34,86.44,86.44,0,0,1-11.34-.66,134.66,134.66,0,0,0,73,21.4" style="fill:#fff"/></g></svg>