<svg xmlns="http://www.w3.org/2000/svg" viewBox="0 0 512 512"><title>171108_SCH_Icons_social_media</title><g id="youtube"><circle id="circle" cx="256" cy="256" r="256" style="fill:red"/><g id="_Gruppe_" data-name="&lt;Gruppe&gt;"><path id="_Pfad_" data-name="&lt;Pfad&gt;" d="M371,197.86a30.16,30.16,0,0,0-21.22-21.36c-18.72-5-93.77-5-93.77-5s-75.05,0-93.77,5A30.16,30.16,0,0,0,141,197.86c-5,18.84-5,58.14-5,58.14s0,39.3,5,58.14a30.16,30.16,0,0,0,21.22,21.36c18.72,5,93.77,5,93.77,5s75.05,0,93.77-5A30.16,30.16,0,0,0,371,314.14c5-18.84,5-58.14,5-58.14S376,216.7,371,197.86Z" style="fill:#fff"/><polygon id="_Pfad_2" data-name="&lt;Pfad&gt;" points="231.46 291.69 294.18 256 231.46 220.31 231.46 291.69" style="fill:red"/></g></g></svg>